<?xml version="1.0" encoding="UTF-8" standalone="no"?>
<svg width="238px" height="186px" viewBox="0 0 238 186" version="1.1" xmlns="http://www.w3.org/2000/svg" xmlns:xlink="http://www.w3.org/1999/xlink">
    <!-- Generator: Sketch 44.1 (41455) - http://www.bohemiancoding.com/sketch -->
    <title>Slice</title>
    <desc>Created with Sketch.</desc>
    <defs></defs>
    <g id="Page-1" stroke="none" stroke-width="1" fill="none" fill-rule="evenodd">
        <g id="Group">
            <g id="Ingosinvest-logo-RGB">
                <path d="M0,26.823 L36.36,1.664 C37.625,0.789 38.953,0.14 40.529,0.14 C43.512,0.14 45.967,2.393 46.286,5.29 C46.345,5.818 46.322,6.386 46.322,6.917 L46.322,32.174 L92.637,0.127 L92.637,66.067 L56.277,91.227 C55.012,92.103 53.677,92.751 52.107,92.751 C49.529,92.751 47.344,91.066 46.594,88.736 C46.268,87.725 46.314,86.828 46.314,85.792 L46.314,71.942 C46.314,71.671 46.319,71.398 46.293,71.126 C45.998,68.218 43.541,65.947 40.557,65.947 C39.416,65.947 38.353,66.28 37.459,66.851 C37.266,66.973 37.077,67.108 36.89,67.238 L0,92.764 L0,26.823" id="Fill-1" fill="#CF2348"></path>
                <path d="M154.891,123.469 L157.21,123.469 C157.592,120.449 159.095,118.84 161.327,118.84 L161.327,140.027 L159.564,140.027 L159.564,143.063 L168.986,143.063 L168.986,140.027 L167.212,140.027 L167.212,118.762 C169.471,118.762 171.147,120.254 171.635,123.469 L173.947,123.469 L173.947,115.942 L154.891,115.942 L154.891,123.469" id="Fill-2" fill="#184986"></path>
                <polyline id="Fill-3" fill="#184986" points="237.946 140.035 231.727 127.746 236.433 118.992 238.209 118.992 238.209 115.942 231.908 115.942 231.908 118.992 232.978 118.992 230.053 124.453 227.281 118.992 228.547 118.992 228.547 115.942 219.634 115.942 219.604 118.992 221.185 118.992 226.915 130.299 221.671 140.01 219.937 140.01 219.937 143.063 226.063 143.063 226.063 140.01 225.113 140.01 228.573 133.578 231.85 140.01 230.799 140.01 230.799 143.063 239.314 143.063 239.314 140.035 237.946 140.035"></polyline>
                <path d="M132.115,129.52 C132.115,137.492 136.788,143.943 143.322,143.943 C146.834,143.943 149.725,142.83 151.586,140.867 L151.586,134.404 L149.674,134.404 C148.877,138.367 147.348,140.791 144.256,140.791 C140.754,140.791 138.225,135.475 138.225,129.52 C138.225,123.563 140.324,118.213 144.002,118.213 C147.484,118.213 148.607,120.717 149.439,123.469 L151.586,123.469 L151.586,118.164 C149.38,116.481 147.512,115.094 143.77,115.094 C137.645,115.094 132.115,121.561 132.115,129.52" id="Fill-4" fill="#184986"></path>
                <path d="M186.342,130.055 L185.236,130.055 L185.236,119.01 L186.222,119.01 C189.153,119.01 191.025,121.65 191.025,124.762 C191.025,127.877 189.153,130.055 186.342,130.055 Z M187.874,115.944 L177.523,115.944 L177.523,118.969 L179.305,118.969 L179.305,140.027 L177.523,140.027 L177.523,143.063 L187.024,143.063 L187.024,140.027 L185.236,140.027 L185.236,133.076 L187.274,133.076 C194.015,133.076 196.804,128.813 196.804,124.453 C196.761,120.09 194.345,115.944 187.874,115.944 L187.874,115.944 Z" id="Fill-5" fill="#184986"></path>
                <path d="M202.881,131.838 L205.214,123.342 L207.571,131.838 L202.881,131.838 Z M215.966,140.035 L209.273,115.956 L201.982,115.944 L201.982,118.992 L203.269,118.992 L197.442,140.035 L196.164,140.035 L196.164,143.063 L201.694,143.063 L201.694,140.027 L200.63,140.027 L202.072,134.773 L208.373,134.773 L209.839,140.027 L208.533,140.008 L208.533,143.063 L217.193,143.063 L217.193,140.035 L215.966,140.035 L215.966,140.035 Z" id="Fill-6" fill="#184986"></path>
                <path d="M110.025,129.52 C110.025,137.492 114.726,143.943 121.256,143.943 C124.777,143.943 127.669,142.83 129.529,140.867 L129.529,134.404 L127.618,134.404 C126.801,138.367 125.283,140.791 122.217,140.791 C118.658,140.791 116.158,135.475 116.158,129.52 C116.158,123.563 118.256,118.213 121.932,118.213 C125.434,118.213 126.586,120.717 127.384,123.469 L129.529,123.469 L129.529,118.164 C127.33,116.481 125.473,115.094 121.734,115.094 C115.585,115.094 110.023,121.561 110.025,129.52" id="Fill-7" fill="#184986"></path>
                <polyline id="Fill-8" fill="#184986" points="53.746 118.992 55.542 118.992 55.542 127.604 48.832 127.604 48.832 118.992 50.639 118.992 50.639 115.942 41.11 115.942 41.11 118.992 42.939 118.992 42.939 140.027 41.11 140.027 41.11 143.065 50.639 143.065 50.639 140.027 48.832 140.027 48.832 130.539 55.542 130.539 55.542 140.027 53.746 140.027 53.746 143.065 63.19 143.065 63.19 140.027 61.408 140.027 61.408 118.992 63.19 118.992 63.19 115.942 53.746 115.942 53.746 118.992"></polyline>
                <path d="M66.822,118.996 L68.652,118.996 L68.652,140.049 L66.822,140.049 L66.822,143.063 L77.103,143.063 L77.103,140.049 L74.529,140.049 L74.529,118.996 L77.082,118.996 C79.203,118.996 80.942,120.508 80.942,123.516 L83.083,123.514 L83.083,115.944 L66.822,115.944 L66.822,118.996" id="Fill-9" fill="#184986"></path>
                <polyline id="Fill-10" fill="#184986" points="23.154 134.818 23.154 118.992 24.948 118.992 24.948 115.942 15.438 115.942 15.438 118.992 17.265 118.992 17.265 140.027 15.438 140.027 15.438 143.063 23.406 143.063 29.957 124.344 29.957 140.027 28.125 140.027 28.125 143.063 37.678 143.063 37.678 140.027 35.825 140.027 35.825 118.992 37.678 118.992 37.678 115.942 29.768 115.942 23.154 134.818"></polyline>
                <path d="M96.073,140.803 C92.715,140.803 90.951,135.475 90.951,129.52 C90.951,123.561 92.813,118.234 96.073,118.234 C99.279,118.234 101.217,123.561 101.217,129.52 C101.217,135.475 99.488,140.803 96.073,140.803 Z M96.073,115.094 C89.15,115.094 84.836,121.561 84.836,129.52 C84.836,137.492 89.375,143.941 96.073,143.941 C103.035,143.941 107.281,137.494 107.281,129.52 C107.281,121.561 102.924,115.094 96.073,115.094 L96.073,115.094 Z" id="Fill-11" fill="#184986"></path>
                <path d="M15.438,180.846 L18.969,180.846 L27.282,169.381 C27.491,169.07 27.719,168.742 27.959,168.395 C28.2,168.047 28.414,167.729 28.605,167.445 C28.795,167.16 28.909,166.957 28.953,166.838 L29.029,166.838 C29.029,166.945 29.016,167.148 28.997,167.432 C28.983,167.711 28.967,168.033 28.946,168.381 C28.928,168.736 28.914,169.07 28.914,169.381 L28.914,180.846 L32.483,180.846 L32.483,161.637 L28.914,161.637 L20.639,173.102 C20.417,173.412 20.184,173.746 19.942,174.102 C19.703,174.457 19.486,174.772 19.298,175.063 C19.107,175.354 18.987,175.563 18.93,175.684 L18.854,175.684 C18.867,175.607 18.887,175.438 18.899,175.158 C18.918,174.879 18.937,174.557 18.95,174.184 C18.962,173.811 18.969,173.451 18.969,173.102 L18.969,161.637 L15.438,161.637 L15.438,180.846" id="Fill-12" fill="#184986"></path>
                <polyline id="Fill-13" fill="#184986" points="39.449 180.846 43.131 180.846 43.131 172.607 52.851 172.607 52.851 180.846 56.533 180.846 56.533 161.637 52.851 161.637 52.851 169.457 43.131 169.457 43.131 161.637 39.449 161.637 39.449 180.846"></polyline>
                <path d="M67.373,178.264 L67.373,172.229 L71.283,172.229 C72.563,172.234 73.535,172.508 74.213,173.031 C74.891,173.563 75.225,174.311 75.232,175.266 C75.232,175.867 75.092,176.385 74.809,176.834 C74.523,177.283 74.093,177.631 73.518,177.885 C72.941,178.133 72.207,178.258 71.322,178.264 L67.373,178.264 Z M67.373,169.762 L67.373,164.18 L70.865,164.18 C72.023,164.18 72.878,164.408 73.441,164.852 C74.005,165.301 74.289,165.965 74.283,166.838 C74.283,167.742 74.01,168.451 73.46,168.969 C72.91,169.488 72.081,169.748 70.979,169.762 L67.373,169.762 Z M63.691,180.846 L71.891,180.846 C73.296,180.846 74.523,180.637 75.58,180.219 C76.637,179.809 77.458,179.195 78.047,178.385 C78.641,177.568 78.94,176.568 78.951,175.379 C78.951,174.664 78.812,174 78.541,173.381 C78.263,172.76 77.857,172.229 77.313,171.785 C76.775,171.342 76.105,171.02 75.308,170.824 L75.308,170.785 C75.891,170.527 76.39,170.191 76.795,169.768 C77.199,169.35 77.51,168.869 77.718,168.324 C77.934,167.779 78.041,167.191 78.041,166.572 C78.035,165.496 77.769,164.592 77.236,163.857 C76.712,163.123 75.966,162.574 75.011,162.199 C74.056,161.826 72.922,161.637 71.625,161.637 L63.691,161.637 L63.691,180.846 L63.691,180.846 Z" id="Fill-14" fill="#184986"></path>
                <path d="M87.438,169.078 C87.619,168.008 87.975,167.104 88.499,166.35 C89.019,165.598 89.67,165.027 90.448,164.629 C91.232,164.231 92.1,164.027 93.056,164.027 C93.902,164.027 94.669,164.219 95.353,164.604 C96.041,164.984 96.598,165.553 97.021,166.299 C97.447,167.047 97.68,167.977 97.725,169.078 L87.438,169.078 Z M83.488,171.242 C83.494,172.672 83.741,174 84.235,175.215 C84.729,176.436 85.424,177.5 86.328,178.404 C87.234,179.315 88.31,180.023 89.556,180.529 C90.803,181.037 92.187,181.295 93.7,181.301 C94.593,181.301 95.49,181.188 96.396,180.973 C97.302,180.758 98.16,180.441 98.978,180.035 C99.793,179.631 100.516,179.139 101.141,178.568 L99.585,175.873 C99.078,176.328 98.516,176.729 97.902,177.063 C97.288,177.398 96.643,177.65 95.972,177.834 C95.295,178.018 94.618,178.113 93.928,178.113 C93.063,178.113 92.238,177.973 91.467,177.701 C90.695,177.424 90.006,177.018 89.397,176.475 C88.797,175.936 88.316,175.272 87.949,174.475 C87.582,173.684 87.373,172.773 87.322,171.734 L101.293,171.734 C101.33,171.469 101.369,171.203 101.4,170.943 C101.426,170.678 101.445,170.426 101.445,170.178 C101.445,168.938 101.268,167.773 100.906,166.691 C100.553,165.604 100.027,164.654 99.325,163.826 C98.623,163.004 97.756,162.357 96.718,161.891 C95.687,161.428 94.492,161.188 93.131,161.182 C91.758,161.188 90.486,161.422 89.315,161.897 C88.151,162.363 87.133,163.041 86.26,163.922 C85.387,164.801 84.71,165.857 84.229,167.09 C83.741,168.324 83.494,169.709 83.488,171.242 L83.488,171.242 Z" id="Fill-15" fill="#184986"></path>
                <path d="M105.943,171.242 C105.949,172.691 106.203,174.025 106.695,175.246 C107.195,176.469 107.898,177.531 108.811,178.436 C109.72,179.34 110.809,180.043 112.061,180.543 C113.314,181.043 114.707,181.295 116.23,181.301 C117.236,181.295 118.217,181.168 119.168,180.916 C120.109,180.662 120.99,180.309 121.799,179.854 C122.608,179.391 123.313,178.854 123.899,178.227 L122.42,175.531 C121.92,176.057 121.344,176.506 120.698,176.891 C120.053,177.277 119.369,177.574 118.647,177.791 C117.927,178.006 117.211,178.113 116.498,178.113 C115.496,178.107 114.58,177.93 113.752,177.58 C112.922,177.232 112.207,176.752 111.606,176.127 C110.999,175.5 110.529,174.772 110.201,173.93 C109.871,173.096 109.708,172.184 109.701,171.203 C109.708,170.223 109.871,169.313 110.201,168.482 C110.529,167.654 110.992,166.932 111.586,166.318 C112.188,165.705 112.891,165.225 113.706,164.889 C114.516,164.547 115.408,164.377 116.383,164.369 C117.06,164.369 117.718,164.465 118.369,164.654 C119.016,164.838 119.623,165.098 120.191,165.426 C120.762,165.756 121.262,166.135 121.699,166.572 L123.443,163.99 C122.83,163.344 122.121,162.815 121.331,162.402 C120.534,161.984 119.699,161.68 118.824,161.479 C117.952,161.275 117.085,161.182 116.23,161.182 C114.713,161.188 113.333,161.447 112.074,161.953 C110.822,162.459 109.74,163.168 108.822,164.072 C107.91,164.984 107.201,166.047 106.702,167.268 C106.203,168.482 105.949,169.813 105.943,171.242" id="Fill-16" fill="#184986"></path>
                <polyline id="Fill-17" fill="#184986" points="133.98 180.846 137.625 180.846 137.625 164.787 144.346 164.787 144.346 161.637 127.3 161.637 127.3 164.787 133.98 164.787 133.98 180.846"></polyline>
                <path d="M149.26,180.846 L152.791,180.846 L161.105,169.381 C161.314,169.07 161.543,168.742 161.782,168.395 C162.022,168.047 162.238,167.729 162.429,167.445 C162.618,167.16 162.731,166.957 162.776,166.838 L162.851,166.838 C162.851,166.945 162.839,167.148 162.82,167.432 C162.807,167.711 162.788,168.033 162.77,168.381 C162.75,168.736 162.737,169.07 162.737,169.381 L162.737,180.846 L166.307,180.846 L166.307,161.637 L162.737,161.637 L154.461,173.102 C154.24,173.412 154.006,173.746 153.766,174.102 C153.525,174.457 153.311,174.772 153.119,175.063 C152.931,175.354 152.811,175.563 152.754,175.684 L152.678,175.684 C152.691,175.607 152.709,175.438 152.721,175.158 C152.741,174.879 152.76,174.557 152.771,174.184 C152.785,173.811 152.791,173.451 152.791,173.102 L152.791,161.637 L149.26,161.637 L149.26,180.846" id="Fill-18" fill="#184986"></path>
                <polyline id="Fill-19" fill="#184986" points="173.272 180.846 189.142 180.846 189.142 185.402 192.52 185.402 192.52 177.658 189.825 177.658 189.825 161.637 186.104 161.637 186.104 177.658 176.955 177.658 176.955 161.637 173.272 161.637 173.272 180.846"></polyline>
                <path d="M198.202,180.846 L201.732,180.846 L210.047,169.381 C210.256,169.07 210.483,168.742 210.724,168.395 C210.964,168.047 211.179,167.729 211.369,167.445 C211.559,167.16 211.673,166.957 211.717,166.838 L211.793,166.838 C211.793,166.945 211.779,167.148 211.761,167.432 C211.749,167.711 211.729,168.033 211.71,168.381 C211.691,168.736 211.68,169.07 211.68,169.381 L211.68,180.846 L215.248,180.846 L215.248,161.637 L211.68,161.637 L203.403,173.102 C203.183,173.412 202.948,173.746 202.707,174.102 C202.467,174.457 202.251,174.772 202.062,175.063 C201.871,175.354 201.752,175.563 201.694,175.684 L201.618,175.684 C201.632,175.607 201.65,175.438 201.663,175.158 C201.683,174.879 201.701,174.557 201.714,174.184 C201.727,173.811 201.732,173.451 201.732,173.102 L201.732,161.637 L198.202,161.637 L198.202,180.846" id="Fill-20" fill="#184986"></path>
                <path d="M222.267,180.846 L225.797,180.846 L234.112,169.381 C234.319,169.07 234.548,168.742 234.789,168.395 C235.028,168.047 235.244,167.729 235.434,167.445 C235.624,167.16 235.737,166.957 235.782,166.838 L235.858,166.838 C235.858,166.945 235.845,167.148 235.826,167.432 C235.813,167.711 235.795,168.033 235.776,168.381 C235.757,168.736 235.744,169.07 235.744,169.381 L235.744,180.846 L239.312,180.846 L239.312,161.637 L235.744,161.637 L227.468,173.102 C227.246,173.412 227.012,173.746 226.772,174.102 C226.531,174.457 226.316,174.772 226.126,175.063 C225.937,175.354 225.817,175.563 225.76,175.684 L225.684,175.684 C225.695,175.607 225.716,175.438 225.728,175.158 C225.746,174.879 225.767,174.557 225.778,174.184 C225.792,173.811 225.797,173.451 225.797,173.102 L225.797,161.637 L222.267,161.637 L222.267,180.846" id="Fill-21" fill="#184986"></path>
            </g>
        </g>
    </g>
</svg>